<svg width="310" height="310" viewBox="0 0 310 310" fill="none" xmlns="http://www.w3.org/2000/svg">
<rect width="310" height="310" rx="155" fill="#FACC15"/>
<path fill-rule="evenodd" clip-rule="evenodd" d="M110.785 67.3143C104.893 67.3143 99.2433 69.6472 95.0775 73.7998C90.9117 77.9524 88.5714 83.5845 88.5714 89.4572V222.314C88.5714 228.187 90.9117 233.819 95.0775 237.972C99.2433 242.124 104.893 244.457 110.785 244.457H199.637C205.528 244.457 211.178 242.124 215.344 237.972C219.51 233.819 221.85 228.187 221.85 222.314V127.255C221.849 121.383 219.508 115.752 215.342 111.6L177.424 73.8022C173.259 69.6493 167.61 67.3156 161.719 67.3143H110.785ZM166.317 133.743C166.317 130.807 165.147 127.991 163.064 125.914C160.982 123.838 158.157 122.671 155.211 122.671C152.265 122.671 149.44 123.838 147.357 125.914C145.274 127.991 144.104 130.807 144.104 133.743V155.886H121.891C118.945 155.886 116.12 157.052 114.038 159.129C111.955 161.205 110.785 164.021 110.785 166.957C110.785 169.894 111.955 172.71 114.038 174.786C116.12 176.862 118.945 178.029 121.891 178.029H144.104V200.171C144.104 203.108 145.274 205.924 147.357 208C149.44 210.076 152.265 211.243 155.211 211.243C158.157 211.243 160.982 210.076 163.064 208C165.147 205.924 166.317 203.108 166.317 200.171V178.029H188.531C191.476 178.029 194.301 176.862 196.384 174.786C198.467 172.71 199.637 169.894 199.637 166.957C199.637 164.021 198.467 161.205 196.384 159.129C194.301 157.052 191.476 155.886 188.531 155.886H166.317V133.743Z" fill="#713F12"/>
</svg>
