<?xml version="1.0" standalone="no"?>
<!DOCTYPE svg PUBLIC "-//W3C//DTD SVG 20010904//EN"
 "http://www.w3.org/TR/2001/REC-SVG-20010904/DTD/svg10.dtd">
<svg version="1.0" xmlns="http://www.w3.org/2000/svg"
 width="310.000000pt" height="310.000000pt" viewBox="0 0 310.000000 310.000000"
 preserveAspectRatio="xMidYMid meet">
<metadata>
Created by potrace 1.14, written by Peter Selinger 2001-2017
</metadata>
<g transform="translate(0.000000,310.000000) scale(0.100000,-0.100000)"
fill="#000000" stroke="none">
<path d="M1032 2417 c-48 -18 -99 -63 -125 -110 l-22 -42 0 -726 0 -726 30
-49 c19 -30 49 -60 79 -79 l49 -30 506 0 c503 0 506 0 547 22 47 25 91 73 111
120 10 26 13 139 13 556 l0 523 -25 51 c-34 67 -424 455 -487 483 -40 18 -67
20 -343 19 -205 0 -310 -4 -333 -12z m597 -581 c25 -25 26 -31 29 -160 l4
-134 135 -4 135 -3 29 -33 c40 -45 40 -99 0 -144 l-29 -33 -135 -3 -135 -4 -4
-134 c-3 -129 -4 -135 -29 -160 -58 -57 -157 -33 -178 43 -6 21 -11 86 -11
146 l0 107 -115 0 c-133 0 -175 13 -199 59 -20 38 -20 64 -1 101 26 50 60 60
195 60 l120 0 0 108 c0 59 5 124 11 145 21 76 120 100 178 43z"/>
</g>
</svg>
