<?xml version="1.0" standalone="no"?>
<!DOCTYPE svg PUBLIC "-//W3C//DTD SVG 20010904//EN"
 "http://www.w3.org/TR/2001/REC-SVG-20010904/DTD/svg10.dtd">
<svg version="1.0" xmlns="http://www.w3.org/2000/svg"
 width="700.000000pt" height="700.000000pt" viewBox="0 0 700.000000 700.000000"
 preserveAspectRatio="xMidYMid meet">
<metadata>
Created by potrace 1.14, written by Peter Selinger 2001-2017
</metadata>
<g transform="translate(0.000000,700.000000) scale(0.100000,-0.100000)"
fill="#000000" stroke="none">
<path d="M3251 6990 c-1002 -79 -1898 -554 -2506 -1330 -404 -514 -651 -1132
-726 -1810 -16 -148 -16 -552 0 -700 65 -591 251 -1113 566 -1585 268 -403
580 -714 980 -980 717 -477 1584 -669 2450 -544 1290 186 2378 1092 2795 2326
130 387 184 718 184 1133 0 249 -11 378 -50 606 -143 842 -609 1622 -1284
2149 -513 401 -1116 647 -1770 721 -160 18 -492 25 -639 14z m524 -1525 c136
-36 145 -43 666 -564 440 -440 488 -492 516 -551 17 -36 36 -89 42 -118 8 -37
11 -399 11 -1185 0 -1233 2 -1184 -56 -1300 -34 -67 -144 -177 -211 -211 -115
-58 -73 -56 -1238 -56 -1012 0 -1074 1 -1137 19 -170 47 -309 187 -353 358
-13 50 -15 267 -15 1623 0 1374 2 1573 15 1625 44 169 188 314 356 359 83 22
1319 23 1404 1z"/>
<path d="M3420 4210 c-65 -22 -130 -86 -148 -147 -8 -27 -12 -130 -12 -311 l0
-271 -287 -3 c-325 -3 -332 -5 -405 -86 -108 -119 -71 -307 76 -385 39 -21 56
-22 329 -25 l287 -3 0 -271 c0 -185 4 -284 12 -312 19 -62 91 -130 157 -150
67 -20 84 -20 147 -1 66 19 121 67 150 129 23 50 24 58 24 328 l0 277 288 3
c272 3 289 4 327 25 88 47 137 127 137 223 0 96 -49 176 -137 223 -38 21 -55
22 -327 25 l-288 3 0 277 c0 270 -1 278 -24 328 -29 62 -84 110 -150 129 -64
19 -89 18 -156 -5z"/>
</g>
</svg>
